<svg xmlns="http://www.w3.org/2000/svg" viewBox="0 0 48 48"><defs><style>.cls-1{fill:#42a5f5}.cls-2{fill:#424242}</style></defs><g id="Return_User" data-name="Return User"><path class="cls-1" d="M38 12.3V4a4 4 0 0 0-4-4H4a4 4 0 0 0-4 4v40a4 4 0 0 0 4 4h30a4 4 0 0 0 4-4v-2.3a14.58 14.58 0 0 1-2 .3v2a2 2 0 0 1-2 2H4a2 2 0 0 1-2-2V8h34v4a14.58 14.58 0 0 1 2 .3zM5 5a1 1 0 0 1 0-2 1 1 0 0 1 0 2zm4 0a1 1 0 0 1 0-2 1 1 0 0 1 0 2zm4 0a1 1 0 0 1 0-2 1 1 0 0 1 0 2z"/><path class="cls-2" d="M13 26a1 1 0 0 1-1-1v-1H5a1 1 0 0 1-1-1v-4a1 1 0 0 1 1-1h7c0-.78-.16-1.52.53-1.88a1 1 0 0 1 1 .05l6 4a1 1 0 0 1 0 1.66C13.08 26.15 13.43 26 13 26zm-7-4h7a1 1 0 0 1 1 1c0 .2-.4.4 3.2-2-3.68-2.45-3.2-2.19-3.2-2a1 1 0 0 1-1 1H6zM11 38c-.43 0-.1.13-6.55-4.17a1 1 0 0 1 0-1.66l6-4a1 1 0 0 1 1-.05c.6.32.53.79.53 1.88h7a1 1 0 0 1 1 1v4a1 1 0 0 1-1 1H12v1a1 1 0 0 1-1 1zm-4.2-5c3.68 2.45 3.2 2.19 3.2 2a1 1 0 0 1 1-1h7v-2h-7a1 1 0 0 1-1-1.13zM35 40a13 13 0 1 1 13-13 13 13 0 0 1-13 13zm0-24a11 11 0 1 0 11 11 11 11 0 0 0-11-11z"/><path class="cls-1" d="M42.86 31.37a9 9 0 0 1-15.72 0c.54-1.77 2-2 3.39-2.38a6 6 0 0 0 8.94 0c1.34.39 2.85.61 3.39 2.38z"/><path class="cls-1" d="M35 29a4 4 0 0 1-4-4v-2a4 4 0 0 1 8 0v2a4 4 0 0 1-4 4z"/></g></svg>